<mxfile host="app.diagrams.net" agent="Mozilla/5.0 (Windows NT 10.0; Win64; x64) AppleWebKit/537.36 (KHTML, like Gecko) Chrome/130.0.0.0 Safari/537.36" version="24.8.4">
  <diagram id="C5RBs43oDa-KdzZeNtuy" name="database-page1">
    <mxGraphModel dx="2571" dy="869" grid="1" gridSize="10" guides="1" tooltips="1" connect="1" arrows="1" fold="1" page="1" pageScale="1" pageWidth="827" pageHeight="1169" math="0" shadow="0">
      <root>
        <mxCell id="WIyWlLk6GJQsqaUBKTNV-0" />
        <mxCell id="WIyWlLk6GJQsqaUBKTNV-1" parent="WIyWlLk6GJQsqaUBKTNV-0" />
        <mxCell id="zkfFHV4jXpPFQw0GAbJ--0" value="User" style="swimlane;fontStyle=2;align=center;verticalAlign=top;childLayout=stackLayout;horizontal=1;startSize=26;horizontalStack=0;resizeParent=1;resizeLast=0;collapsible=1;marginBottom=0;rounded=0;shadow=0;strokeWidth=1;labelBackgroundColor=none;" parent="WIyWlLk6GJQsqaUBKTNV-1" vertex="1">
          <mxGeometry x="370" y="870" width="120" height="160" as="geometry">
            <mxRectangle x="230" y="140" width="160" height="26" as="alternateBounds" />
          </mxGeometry>
        </mxCell>
        <mxCell id="zkfFHV4jXpPFQw0GAbJ--1" value="user_id" style="text;align=left;verticalAlign=top;spacingLeft=4;spacingRight=4;overflow=hidden;rotatable=0;points=[[0,0.5],[1,0.5]];portConstraint=eastwest;labelBackgroundColor=none;" parent="zkfFHV4jXpPFQw0GAbJ--0" vertex="1">
          <mxGeometry y="26" width="120" height="26" as="geometry" />
        </mxCell>
        <mxCell id="zkfFHV4jXpPFQw0GAbJ--2" value="username" style="text;align=left;verticalAlign=top;spacingLeft=4;spacingRight=4;overflow=hidden;rotatable=0;points=[[0,0.5],[1,0.5]];portConstraint=eastwest;rounded=0;shadow=0;html=0;labelBackgroundColor=none;" parent="zkfFHV4jXpPFQw0GAbJ--0" vertex="1">
          <mxGeometry y="52" width="120" height="26" as="geometry" />
        </mxCell>
        <mxCell id="zkfFHV4jXpPFQw0GAbJ--3" value="password" style="text;align=left;verticalAlign=top;spacingLeft=4;spacingRight=4;overflow=hidden;rotatable=0;points=[[0,0.5],[1,0.5]];portConstraint=eastwest;rounded=0;shadow=0;html=0;labelBackgroundColor=none;" parent="zkfFHV4jXpPFQw0GAbJ--0" vertex="1">
          <mxGeometry y="78" width="120" height="26" as="geometry" />
        </mxCell>
        <mxCell id="AJHigA8q5ucF8Tfmt1Lf-0" value="email" style="text;align=left;verticalAlign=top;spacingLeft=4;spacingRight=4;overflow=hidden;rotatable=0;points=[[0,0.5],[1,0.5]];portConstraint=eastwest;rounded=0;shadow=0;html=0;labelBackgroundColor=none;" parent="zkfFHV4jXpPFQw0GAbJ--0" vertex="1">
          <mxGeometry y="104" width="120" height="26" as="geometry" />
        </mxCell>
        <mxCell id="AJHigA8q5ucF8Tfmt1Lf-2" value="role_id" style="text;align=left;verticalAlign=top;spacingLeft=4;spacingRight=4;overflow=hidden;rotatable=0;points=[[0,0.5],[1,0.5]];portConstraint=eastwest;rounded=0;shadow=0;html=0;labelBackgroundColor=none;" parent="zkfFHV4jXpPFQw0GAbJ--0" vertex="1">
          <mxGeometry y="130" width="120" height="26" as="geometry" />
        </mxCell>
        <mxCell id="zkfFHV4jXpPFQw0GAbJ--6" value="Database" style="swimlane;fontStyle=0;align=center;verticalAlign=top;childLayout=stackLayout;horizontal=1;startSize=26;horizontalStack=0;resizeParent=1;resizeLast=0;collapsible=1;marginBottom=0;rounded=0;shadow=0;strokeWidth=1;labelBackgroundColor=none;" parent="WIyWlLk6GJQsqaUBKTNV-1" vertex="1">
          <mxGeometry x="90" y="740" width="160" height="164" as="geometry">
            <mxRectangle x="130" y="380" width="160" height="26" as="alternateBounds" />
          </mxGeometry>
        </mxCell>
        <mxCell id="zkfFHV4jXpPFQw0GAbJ--7" value="db_id" style="text;align=left;verticalAlign=top;spacingLeft=4;spacingRight=4;overflow=hidden;rotatable=0;points=[[0,0.5],[1,0.5]];portConstraint=eastwest;labelBackgroundColor=none;" parent="zkfFHV4jXpPFQw0GAbJ--6" vertex="1">
          <mxGeometry y="26" width="160" height="26" as="geometry" />
        </mxCell>
        <mxCell id="zkfFHV4jXpPFQw0GAbJ--8" value="db_name" style="text;align=left;verticalAlign=top;spacingLeft=4;spacingRight=4;overflow=hidden;rotatable=0;points=[[0,0.5],[1,0.5]];portConstraint=eastwest;rounded=0;shadow=0;html=0;labelBackgroundColor=none;" parent="zkfFHV4jXpPFQw0GAbJ--6" vertex="1">
          <mxGeometry y="52" width="160" height="26" as="geometry" />
        </mxCell>
        <mxCell id="AJHigA8q5ucF8Tfmt1Lf-7" value="created_at" style="text;align=left;verticalAlign=top;spacingLeft=4;spacingRight=4;overflow=hidden;rotatable=0;points=[[0,0.5],[1,0.5]];portConstraint=eastwest;rounded=0;shadow=0;html=0;labelBackgroundColor=none;" parent="zkfFHV4jXpPFQw0GAbJ--6" vertex="1">
          <mxGeometry y="78" width="160" height="26" as="geometry" />
        </mxCell>
        <mxCell id="AJHigA8q5ucF8Tfmt1Lf-8" value="created_by" style="text;align=left;verticalAlign=top;spacingLeft=4;spacingRight=4;overflow=hidden;rotatable=0;points=[[0,0.5],[1,0.5]];portConstraint=eastwest;rounded=0;shadow=0;html=0;labelBackgroundColor=none;" parent="zkfFHV4jXpPFQw0GAbJ--6" vertex="1">
          <mxGeometry y="104" width="160" height="26" as="geometry" />
        </mxCell>
        <mxCell id="zkfFHV4jXpPFQw0GAbJ--9" value="" style="line;html=1;strokeWidth=1;align=left;verticalAlign=middle;spacingTop=-1;spacingLeft=3;spacingRight=3;rotatable=0;labelPosition=right;points=[];portConstraint=eastwest;labelBackgroundColor=none;" parent="zkfFHV4jXpPFQw0GAbJ--6" vertex="1">
          <mxGeometry y="130" width="160" height="8" as="geometry" />
        </mxCell>
        <mxCell id="zkfFHV4jXpPFQw0GAbJ--12" value="" style="endArrow=block;endSize=10;endFill=0;shadow=0;strokeWidth=1;rounded=0;curved=0;edgeStyle=elbowEdgeStyle;elbow=vertical;labelBackgroundColor=none;fontColor=default;" parent="WIyWlLk6GJQsqaUBKTNV-1" source="zkfFHV4jXpPFQw0GAbJ--6" target="zkfFHV4jXpPFQw0GAbJ--0" edge="1">
          <mxGeometry width="160" relative="1" as="geometry">
            <mxPoint x="200" y="203" as="sourcePoint" />
            <mxPoint x="200" y="203" as="targetPoint" />
          </mxGeometry>
        </mxCell>
        <mxCell id="zkfFHV4jXpPFQw0GAbJ--17" value="Role" style="swimlane;fontStyle=0;align=center;verticalAlign=top;childLayout=stackLayout;horizontal=1;startSize=26;horizontalStack=0;resizeParent=1;resizeLast=0;collapsible=1;marginBottom=0;rounded=0;shadow=0;strokeWidth=1;labelBackgroundColor=none;" parent="WIyWlLk6GJQsqaUBKTNV-1" vertex="1">
          <mxGeometry x="620" y="780" width="120" height="90" as="geometry">
            <mxRectangle x="550" y="140" width="160" height="26" as="alternateBounds" />
          </mxGeometry>
        </mxCell>
        <mxCell id="zkfFHV4jXpPFQw0GAbJ--18" value="role_id" style="text;align=left;verticalAlign=top;spacingLeft=4;spacingRight=4;overflow=hidden;rotatable=0;points=[[0,0.5],[1,0.5]];portConstraint=eastwest;labelBackgroundColor=none;" parent="zkfFHV4jXpPFQw0GAbJ--17" vertex="1">
          <mxGeometry y="26" width="120" height="26" as="geometry" />
        </mxCell>
        <mxCell id="zkfFHV4jXpPFQw0GAbJ--19" value="role_name" style="text;align=left;verticalAlign=top;spacingLeft=4;spacingRight=4;overflow=hidden;rotatable=0;points=[[0,0.5],[1,0.5]];portConstraint=eastwest;rounded=0;shadow=0;html=0;labelBackgroundColor=none;" parent="zkfFHV4jXpPFQw0GAbJ--17" vertex="1">
          <mxGeometry y="52" width="120" height="26" as="geometry" />
        </mxCell>
        <mxCell id="zkfFHV4jXpPFQw0GAbJ--26" value="" style="endArrow=open;shadow=0;strokeWidth=1;rounded=0;curved=0;endFill=1;edgeStyle=elbowEdgeStyle;elbow=vertical;labelBackgroundColor=none;fontColor=default;" parent="WIyWlLk6GJQsqaUBKTNV-1" source="zkfFHV4jXpPFQw0GAbJ--0" target="zkfFHV4jXpPFQw0GAbJ--17" edge="1">
          <mxGeometry x="0.5" y="41" relative="1" as="geometry">
            <mxPoint x="380" y="192" as="sourcePoint" />
            <mxPoint x="540" y="192" as="targetPoint" />
            <mxPoint x="-40" y="32" as="offset" />
          </mxGeometry>
        </mxCell>
        <mxCell id="AJHigA8q5ucF8Tfmt1Lf-9" style="edgeStyle=orthogonalEdgeStyle;rounded=0;orthogonalLoop=1;jettySize=auto;html=1;exitX=1;exitY=0.5;exitDx=0;exitDy=0;" parent="WIyWlLk6GJQsqaUBKTNV-1" source="AJHigA8q5ucF8Tfmt1Lf-2" target="zkfFHV4jXpPFQw0GAbJ--17" edge="1">
          <mxGeometry relative="1" as="geometry" />
        </mxCell>
        <mxCell id="xFFYZVTWZyNk6xg4L8Ox-0" value="Roles" style="shape=table;startSize=30;container=1;collapsible=0;childLayout=tableLayout;fixedRows=1;rowLines=0;fontStyle=0;strokeColor=default;fontSize=16;align=center;verticalAlign=middle;fontFamily=Helvetica;fontColor=default;resizable=1;fillColor=default;" parent="WIyWlLk6GJQsqaUBKTNV-1" vertex="1">
          <mxGeometry x="-740" y="695" width="292.01" height="147" as="geometry" />
        </mxCell>
        <mxCell id="xFFYZVTWZyNk6xg4L8Ox-1" value="" style="shape=tableRow;horizontal=0;startSize=0;swimlaneHead=0;swimlaneBody=0;top=0;left=0;bottom=0;right=0;collapsible=0;dropTarget=0;fillColor=none;points=[[0,0.5],[1,0.5]];portConstraint=eastwest;strokeColor=inherit;fontSize=16;align=center;verticalAlign=middle;fontFamily=Helvetica;fontColor=default;fontStyle=0;resizable=1;" parent="xFFYZVTWZyNk6xg4L8Ox-0" vertex="1">
          <mxGeometry y="30" width="292.01" height="47" as="geometry" />
        </mxCell>
        <mxCell id="xFFYZVTWZyNk6xg4L8Ox-2" value="RoleID" style="shape=partialRectangle;html=1;whiteSpace=wrap;connectable=0;fillColor=none;top=0;left=0;bottom=0;right=0;overflow=hidden;pointerEvents=1;strokeColor=inherit;fontSize=16;align=center;verticalAlign=middle;fontFamily=Helvetica;fontColor=default;fontStyle=0;resizable=1;" parent="xFFYZVTWZyNk6xg4L8Ox-1" vertex="1">
          <mxGeometry width="96" height="47" as="geometry">
            <mxRectangle width="96" height="47" as="alternateBounds" />
          </mxGeometry>
        </mxCell>
        <mxCell id="xFFYZVTWZyNk6xg4L8Ox-3" value="INT, PRIMARY KEY, AUTO_INCREMEN" style="shape=partialRectangle;html=1;whiteSpace=wrap;connectable=0;fillColor=none;top=0;left=0;bottom=0;right=0;align=left;spacingLeft=6;overflow=hidden;strokeColor=inherit;fontSize=16;verticalAlign=middle;fontFamily=Helvetica;fontColor=default;fontStyle=0;resizable=1;" parent="xFFYZVTWZyNk6xg4L8Ox-1" vertex="1">
          <mxGeometry x="96" width="196" height="47" as="geometry">
            <mxRectangle width="196" height="47" as="alternateBounds" />
          </mxGeometry>
        </mxCell>
        <mxCell id="xFFYZVTWZyNk6xg4L8Ox-4" value="" style="shape=tableRow;horizontal=0;startSize=0;swimlaneHead=0;swimlaneBody=0;top=0;left=0;bottom=0;right=0;collapsible=0;dropTarget=0;fillColor=none;points=[[0,0.5],[1,0.5]];portConstraint=eastwest;strokeColor=inherit;fontSize=16;align=center;verticalAlign=middle;fontFamily=Helvetica;fontColor=default;fontStyle=0;resizable=1;" parent="xFFYZVTWZyNk6xg4L8Ox-0" vertex="1">
          <mxGeometry y="77" width="292.01" height="50" as="geometry" />
        </mxCell>
        <mxCell id="xFFYZVTWZyNk6xg4L8Ox-5" value="RoleName" style="shape=partialRectangle;html=1;whiteSpace=wrap;connectable=0;fillColor=none;top=0;left=0;bottom=0;right=0;overflow=hidden;strokeColor=inherit;fontSize=16;align=center;verticalAlign=middle;fontFamily=Helvetica;fontColor=default;fontStyle=0;resizable=1;" parent="xFFYZVTWZyNk6xg4L8Ox-4" vertex="1">
          <mxGeometry width="96" height="50" as="geometry">
            <mxRectangle width="96" height="50" as="alternateBounds" />
          </mxGeometry>
        </mxCell>
        <mxCell id="xFFYZVTWZyNk6xg4L8Ox-6" value="VARCHAR(50), UNIQUE" style="shape=partialRectangle;html=1;whiteSpace=wrap;connectable=0;fillColor=none;top=0;left=0;bottom=0;right=0;align=left;spacingLeft=6;overflow=hidden;strokeColor=inherit;fontSize=16;verticalAlign=middle;fontFamily=Helvetica;fontColor=default;fontStyle=0;resizable=1;" parent="xFFYZVTWZyNk6xg4L8Ox-4" vertex="1">
          <mxGeometry x="96" width="196" height="50" as="geometry">
            <mxRectangle width="196" height="50" as="alternateBounds" />
          </mxGeometry>
        </mxCell>
        <mxCell id="xFFYZVTWZyNk6xg4L8Ox-7" value="" style="shape=tableRow;horizontal=0;startSize=0;swimlaneHead=0;swimlaneBody=0;top=0;left=0;bottom=0;right=0;collapsible=0;dropTarget=0;fillColor=none;points=[[0,0.5],[1,0.5]];portConstraint=eastwest;strokeColor=inherit;fontSize=16;align=center;verticalAlign=middle;fontFamily=Helvetica;fontColor=default;fontStyle=0;resizable=1;" parent="xFFYZVTWZyNk6xg4L8Ox-0" vertex="1">
          <mxGeometry y="127" width="292.01" height="20" as="geometry" />
        </mxCell>
        <mxCell id="xFFYZVTWZyNk6xg4L8Ox-8" value="" style="shape=partialRectangle;html=1;whiteSpace=wrap;connectable=0;fillColor=none;top=0;left=0;bottom=0;right=0;overflow=hidden;strokeColor=inherit;fontSize=16;align=center;verticalAlign=middle;fontFamily=Helvetica;fontColor=default;fontStyle=0;resizable=1;" parent="xFFYZVTWZyNk6xg4L8Ox-7" vertex="1">
          <mxGeometry width="96" height="20" as="geometry">
            <mxRectangle width="96" height="20" as="alternateBounds" />
          </mxGeometry>
        </mxCell>
        <mxCell id="xFFYZVTWZyNk6xg4L8Ox-9" value="" style="shape=partialRectangle;html=1;whiteSpace=wrap;connectable=0;fillColor=none;top=0;left=0;bottom=0;right=0;align=left;spacingLeft=6;overflow=hidden;strokeColor=inherit;fontSize=16;verticalAlign=middle;fontFamily=Helvetica;fontColor=default;fontStyle=0;resizable=1;" parent="xFFYZVTWZyNk6xg4L8Ox-7" vertex="1">
          <mxGeometry x="96" width="196" height="20" as="geometry">
            <mxRectangle width="196" height="20" as="alternateBounds" />
          </mxGeometry>
        </mxCell>
        <mxCell id="xFFYZVTWZyNk6xg4L8Ox-10" value="Users" style="shape=table;startSize=30;container=1;collapsible=0;childLayout=tableLayout;fixedRows=1;rowLines=0;fontStyle=0;strokeColor=default;fontSize=16;align=center;verticalAlign=middle;fontFamily=Helvetica;fontColor=default;resizable=1;fillColor=default;" parent="WIyWlLk6GJQsqaUBKTNV-1" vertex="1">
          <mxGeometry x="-335" y="690" width="368.15" height="406" as="geometry" />
        </mxCell>
        <mxCell id="xFFYZVTWZyNk6xg4L8Ox-11" value="" style="shape=tableRow;horizontal=0;startSize=0;swimlaneHead=0;swimlaneBody=0;top=0;left=0;bottom=0;right=0;collapsible=0;dropTarget=0;fillColor=none;points=[[0,0.5],[1,0.5]];portConstraint=eastwest;strokeColor=inherit;fontSize=16;align=center;verticalAlign=middle;fontFamily=Helvetica;fontColor=default;fontStyle=0;resizable=1;" parent="xFFYZVTWZyNk6xg4L8Ox-10" vertex="1">
          <mxGeometry y="30" width="368.15" height="47" as="geometry" />
        </mxCell>
        <mxCell id="xFFYZVTWZyNk6xg4L8Ox-12" value="UserID" style="shape=partialRectangle;html=1;whiteSpace=wrap;connectable=0;fillColor=none;top=0;left=0;bottom=0;right=0;overflow=hidden;pointerEvents=1;strokeColor=inherit;fontSize=16;align=center;verticalAlign=middle;fontFamily=Helvetica;fontColor=default;fontStyle=0;resizable=1;" parent="xFFYZVTWZyNk6xg4L8Ox-11" vertex="1">
          <mxGeometry width="118" height="47" as="geometry">
            <mxRectangle width="118" height="47" as="alternateBounds" />
          </mxGeometry>
        </mxCell>
        <mxCell id="xFFYZVTWZyNk6xg4L8Ox-13" value="INT, KHÓA CHÍNH, AUTO_INCREMENT" style="shape=partialRectangle;html=1;whiteSpace=wrap;connectable=0;fillColor=none;top=0;left=0;bottom=0;right=0;align=left;spacingLeft=6;overflow=hidden;strokeColor=inherit;fontSize=16;verticalAlign=middle;fontFamily=Helvetica;fontColor=default;fontStyle=0;resizable=1;" parent="xFFYZVTWZyNk6xg4L8Ox-11" vertex="1">
          <mxGeometry x="118" width="250" height="47" as="geometry">
            <mxRectangle width="250" height="47" as="alternateBounds" />
          </mxGeometry>
        </mxCell>
        <mxCell id="xFFYZVTWZyNk6xg4L8Ox-14" value="" style="shape=tableRow;horizontal=0;startSize=0;swimlaneHead=0;swimlaneBody=0;top=0;left=0;bottom=0;right=0;collapsible=0;dropTarget=0;fillColor=none;points=[[0,0.5],[1,0.5]];portConstraint=eastwest;strokeColor=inherit;fontSize=16;align=center;verticalAlign=middle;fontFamily=Helvetica;fontColor=default;fontStyle=0;resizable=1;" parent="xFFYZVTWZyNk6xg4L8Ox-10" vertex="1">
          <mxGeometry y="77" width="368.15" height="50" as="geometry" />
        </mxCell>
        <mxCell id="xFFYZVTWZyNk6xg4L8Ox-15" value="UserName" style="shape=partialRectangle;html=1;whiteSpace=wrap;connectable=0;fillColor=none;top=0;left=0;bottom=0;right=0;overflow=hidden;strokeColor=inherit;fontSize=16;align=center;verticalAlign=middle;fontFamily=Helvetica;fontColor=default;fontStyle=0;resizable=1;" parent="xFFYZVTWZyNk6xg4L8Ox-14" vertex="1">
          <mxGeometry width="118" height="50" as="geometry">
            <mxRectangle width="118" height="50" as="alternateBounds" />
          </mxGeometry>
        </mxCell>
        <mxCell id="xFFYZVTWZyNk6xg4L8Ox-16" value="VARCHAR(100) KHÔNG NULL" style="shape=partialRectangle;html=1;whiteSpace=wrap;connectable=0;fillColor=none;top=0;left=0;bottom=0;right=0;align=left;spacingLeft=6;overflow=hidden;strokeColor=inherit;fontSize=16;verticalAlign=middle;fontFamily=Helvetica;fontColor=default;fontStyle=0;resizable=1;" parent="xFFYZVTWZyNk6xg4L8Ox-14" vertex="1">
          <mxGeometry x="118" width="250" height="50" as="geometry">
            <mxRectangle width="250" height="50" as="alternateBounds" />
          </mxGeometry>
        </mxCell>
        <mxCell id="xFFYZVTWZyNk6xg4L8Ox-17" value="" style="shape=tableRow;horizontal=0;startSize=0;swimlaneHead=0;swimlaneBody=0;top=0;left=0;bottom=0;right=0;collapsible=0;dropTarget=0;fillColor=none;points=[[0,0.5],[1,0.5]];portConstraint=eastwest;strokeColor=inherit;fontSize=16;align=center;verticalAlign=middle;fontFamily=Helvetica;fontColor=default;fontStyle=0;resizable=1;" parent="xFFYZVTWZyNk6xg4L8Ox-10" vertex="1">
          <mxGeometry y="127" width="368.15" height="47" as="geometry" />
        </mxCell>
        <mxCell id="xFFYZVTWZyNk6xg4L8Ox-18" value="&#xa;Email&#xa;&#xa;" style="shape=partialRectangle;html=1;whiteSpace=wrap;connectable=0;fillColor=none;top=0;left=0;bottom=0;right=0;overflow=hidden;strokeColor=inherit;fontSize=16;align=center;verticalAlign=middle;fontFamily=Helvetica;fontColor=default;fontStyle=0;resizable=1;" parent="xFFYZVTWZyNk6xg4L8Ox-17" vertex="1">
          <mxGeometry width="118" height="47" as="geometry">
            <mxRectangle width="118" height="47" as="alternateBounds" />
          </mxGeometry>
        </mxCell>
        <mxCell id="xFFYZVTWZyNk6xg4L8Ox-19" value="VARCHAR(100), DUY NHẤT KHÔNG NULL" style="shape=partialRectangle;html=1;whiteSpace=wrap;connectable=0;fillColor=none;top=0;left=0;bottom=0;right=0;align=left;spacingLeft=6;overflow=hidden;strokeColor=inherit;fontSize=16;verticalAlign=middle;fontFamily=Helvetica;fontColor=default;fontStyle=0;resizable=1;" parent="xFFYZVTWZyNk6xg4L8Ox-17" vertex="1">
          <mxGeometry x="118" width="250" height="47" as="geometry">
            <mxRectangle width="250" height="47" as="alternateBounds" />
          </mxGeometry>
        </mxCell>
        <mxCell id="xFFYZVTWZyNk6xg4L8Ox-20" value="" style="shape=tableRow;horizontal=0;startSize=0;swimlaneHead=0;swimlaneBody=0;top=0;left=0;bottom=0;right=0;collapsible=0;dropTarget=0;fillColor=none;points=[[0,0.5],[1,0.5]];portConstraint=eastwest;strokeColor=inherit;fontSize=16;align=center;verticalAlign=middle;fontFamily=Helvetica;fontColor=default;fontStyle=0;resizable=1;" parent="xFFYZVTWZyNk6xg4L8Ox-10" vertex="1">
          <mxGeometry y="174" width="368.15" height="58" as="geometry" />
        </mxCell>
        <mxCell id="xFFYZVTWZyNk6xg4L8Ox-21" value="PasswordHash" style="shape=partialRectangle;html=1;whiteSpace=wrap;connectable=0;fillColor=none;top=0;left=0;bottom=0;right=0;overflow=hidden;strokeColor=inherit;fontSize=16;align=center;verticalAlign=middle;fontFamily=Helvetica;fontColor=default;fontStyle=0;resizable=1;" parent="xFFYZVTWZyNk6xg4L8Ox-20" vertex="1">
          <mxGeometry width="118" height="58" as="geometry">
            <mxRectangle width="118" height="58" as="alternateBounds" />
          </mxGeometry>
        </mxCell>
        <mxCell id="xFFYZVTWZyNk6xg4L8Ox-22" value="VARCHAR(255) KHÔNG NULL" style="shape=partialRectangle;html=1;whiteSpace=wrap;connectable=0;fillColor=none;top=0;left=0;bottom=0;right=0;align=left;spacingLeft=6;overflow=hidden;strokeColor=inherit;fontSize=16;verticalAlign=middle;fontFamily=Helvetica;fontColor=default;fontStyle=0;resizable=1;" parent="xFFYZVTWZyNk6xg4L8Ox-20" vertex="1">
          <mxGeometry x="118" width="250" height="58" as="geometry">
            <mxRectangle width="250" height="58" as="alternateBounds" />
          </mxGeometry>
        </mxCell>
        <mxCell id="xFFYZVTWZyNk6xg4L8Ox-23" value="" style="shape=tableRow;horizontal=0;startSize=0;swimlaneHead=0;swimlaneBody=0;top=0;left=0;bottom=0;right=0;collapsible=0;dropTarget=0;fillColor=none;points=[[0,0.5],[1,0.5]];portConstraint=eastwest;strokeColor=inherit;fontSize=16;align=center;verticalAlign=middle;fontFamily=Helvetica;fontColor=default;fontStyle=0;resizable=1;" parent="xFFYZVTWZyNk6xg4L8Ox-10" vertex="1">
          <mxGeometry y="232" width="368.15" height="58" as="geometry" />
        </mxCell>
        <mxCell id="xFFYZVTWZyNk6xg4L8Ox-24" value="Address" style="shape=partialRectangle;html=1;whiteSpace=wrap;connectable=0;fillColor=none;top=0;left=0;bottom=0;right=0;overflow=hidden;strokeColor=inherit;fontSize=16;align=center;verticalAlign=middle;fontFamily=Helvetica;fontColor=default;fontStyle=0;resizable=1;" parent="xFFYZVTWZyNk6xg4L8Ox-23" vertex="1">
          <mxGeometry width="118" height="58" as="geometry">
            <mxRectangle width="118" height="58" as="alternateBounds" />
          </mxGeometry>
        </mxCell>
        <mxCell id="xFFYZVTWZyNk6xg4L8Ox-25" value="VARCHAR(255)" style="shape=partialRectangle;html=1;whiteSpace=wrap;connectable=0;fillColor=none;top=0;left=0;bottom=0;right=0;align=left;spacingLeft=6;overflow=hidden;strokeColor=inherit;fontSize=16;verticalAlign=middle;fontFamily=Helvetica;fontColor=default;fontStyle=0;resizable=1;" parent="xFFYZVTWZyNk6xg4L8Ox-23" vertex="1">
          <mxGeometry x="118" width="250" height="58" as="geometry">
            <mxRectangle width="250" height="58" as="alternateBounds" />
          </mxGeometry>
        </mxCell>
        <mxCell id="xFFYZVTWZyNk6xg4L8Ox-26" value="" style="shape=tableRow;horizontal=0;startSize=0;swimlaneHead=0;swimlaneBody=0;top=0;left=0;bottom=0;right=0;collapsible=0;dropTarget=0;fillColor=none;points=[[0,0.5],[1,0.5]];portConstraint=eastwest;strokeColor=inherit;fontSize=16;align=center;verticalAlign=middle;fontFamily=Helvetica;fontColor=default;fontStyle=0;resizable=1;" parent="xFFYZVTWZyNk6xg4L8Ox-10" vertex="1">
          <mxGeometry y="290" width="368.15" height="58" as="geometry" />
        </mxCell>
        <mxCell id="xFFYZVTWZyNk6xg4L8Ox-27" value="PhoneNumber" style="shape=partialRectangle;html=1;whiteSpace=wrap;connectable=0;fillColor=none;top=0;left=0;bottom=0;right=0;overflow=hidden;strokeColor=inherit;fontSize=16;align=center;verticalAlign=middle;fontFamily=Helvetica;fontColor=default;fontStyle=0;resizable=1;" parent="xFFYZVTWZyNk6xg4L8Ox-26" vertex="1">
          <mxGeometry width="118" height="58" as="geometry">
            <mxRectangle width="118" height="58" as="alternateBounds" />
          </mxGeometry>
        </mxCell>
        <mxCell id="xFFYZVTWZyNk6xg4L8Ox-28" value="VARCHAR(15)" style="shape=partialRectangle;html=1;whiteSpace=wrap;connectable=0;fillColor=none;top=0;left=0;bottom=0;right=0;align=left;spacingLeft=6;overflow=hidden;strokeColor=inherit;fontSize=16;verticalAlign=middle;fontFamily=Helvetica;fontColor=default;fontStyle=0;resizable=1;" parent="xFFYZVTWZyNk6xg4L8Ox-26" vertex="1">
          <mxGeometry x="118" width="250" height="58" as="geometry">
            <mxRectangle width="250" height="58" as="alternateBounds" />
          </mxGeometry>
        </mxCell>
        <mxCell id="xFFYZVTWZyNk6xg4L8Ox-29" value="" style="shape=tableRow;horizontal=0;startSize=0;swimlaneHead=0;swimlaneBody=0;top=0;left=0;bottom=0;right=0;collapsible=0;dropTarget=0;fillColor=none;points=[[0,0.5],[1,0.5]];portConstraint=eastwest;strokeColor=inherit;fontSize=16;align=center;verticalAlign=middle;fontFamily=Helvetica;fontColor=default;fontStyle=0;resizable=1;" parent="xFFYZVTWZyNk6xg4L8Ox-10" vertex="1">
          <mxGeometry y="348" width="368.15" height="58" as="geometry" />
        </mxCell>
        <mxCell id="xFFYZVTWZyNk6xg4L8Ox-30" value="RoleID" style="shape=partialRectangle;html=1;whiteSpace=wrap;connectable=0;fillColor=none;top=0;left=0;bottom=0;right=0;overflow=hidden;strokeColor=inherit;fontSize=16;align=center;verticalAlign=middle;fontFamily=Helvetica;fontColor=default;fontStyle=0;resizable=1;" parent="xFFYZVTWZyNk6xg4L8Ox-29" vertex="1">
          <mxGeometry width="118" height="58" as="geometry">
            <mxRectangle width="118" height="58" as="alternateBounds" />
          </mxGeometry>
        </mxCell>
        <mxCell id="xFFYZVTWZyNk6xg4L8Ox-31" value="INT" style="shape=partialRectangle;html=1;whiteSpace=wrap;connectable=0;fillColor=none;top=0;left=0;bottom=0;right=0;align=left;spacingLeft=6;overflow=hidden;strokeColor=inherit;fontSize=16;verticalAlign=middle;fontFamily=Helvetica;fontColor=default;fontStyle=0;resizable=1;" parent="xFFYZVTWZyNk6xg4L8Ox-29" vertex="1">
          <mxGeometry x="118" width="250" height="58" as="geometry">
            <mxRectangle width="250" height="58" as="alternateBounds" />
          </mxGeometry>
        </mxCell>
        <mxCell id="xFFYZVTWZyNk6xg4L8Ox-32" value="" style="edgeStyle=entityRelationEdgeStyle;fontSize=12;html=1;endArrow=ERoneToMany;rounded=0;fontFamily=Helvetica;fontColor=default;fontStyle=1;resizable=1;exitX=0;exitY=0.5;exitDx=0;exitDy=0;" parent="WIyWlLk6GJQsqaUBKTNV-1" source="xFFYZVTWZyNk6xg4L8Ox-29" target="xFFYZVTWZyNk6xg4L8Ox-1" edge="1">
          <mxGeometry width="100" height="100" relative="1" as="geometry">
            <mxPoint x="-505" y="937" as="sourcePoint" />
            <mxPoint x="-405" y="837" as="targetPoint" />
          </mxGeometry>
        </mxCell>
        <mxCell id="xFFYZVTWZyNk6xg4L8Ox-33" value="Orders" style="shape=table;startSize=30;container=1;collapsible=0;childLayout=tableLayout;fixedRows=1;rowLines=0;fontStyle=0;strokeColor=default;fontSize=16;align=center;verticalAlign=middle;fontFamily=Helvetica;fontColor=default;resizable=1;fillColor=default;" parent="WIyWlLk6GJQsqaUBKTNV-1" vertex="1">
          <mxGeometry x="-740" y="1135" width="368.15" height="291" as="geometry" />
        </mxCell>
        <mxCell id="xFFYZVTWZyNk6xg4L8Ox-34" value="" style="shape=tableRow;horizontal=0;startSize=0;swimlaneHead=0;swimlaneBody=0;top=0;left=0;bottom=0;right=0;collapsible=0;dropTarget=0;fillColor=none;points=[[0,0.5],[1,0.5]];portConstraint=eastwest;strokeColor=inherit;fontSize=16;align=center;verticalAlign=middle;fontFamily=Helvetica;fontColor=default;fontStyle=0;resizable=1;" parent="xFFYZVTWZyNk6xg4L8Ox-33" vertex="1">
          <mxGeometry y="30" width="368.15" height="47" as="geometry" />
        </mxCell>
        <mxCell id="xFFYZVTWZyNk6xg4L8Ox-35" value="OrderID" style="shape=partialRectangle;html=1;whiteSpace=wrap;connectable=0;fillColor=none;top=0;left=0;bottom=0;right=0;overflow=hidden;pointerEvents=1;strokeColor=inherit;fontSize=16;align=center;verticalAlign=middle;fontFamily=Helvetica;fontColor=default;fontStyle=0;resizable=1;" parent="xFFYZVTWZyNk6xg4L8Ox-34" vertex="1">
          <mxGeometry width="118" height="47" as="geometry">
            <mxRectangle width="118" height="47" as="alternateBounds" />
          </mxGeometry>
        </mxCell>
        <mxCell id="xFFYZVTWZyNk6xg4L8Ox-36" value="INT, PRIMARY KEY, AUTO_INCREMENT" style="shape=partialRectangle;html=1;whiteSpace=wrap;connectable=0;fillColor=none;top=0;left=0;bottom=0;right=0;align=left;spacingLeft=6;overflow=hidden;strokeColor=inherit;fontSize=16;verticalAlign=middle;fontFamily=Helvetica;fontColor=default;fontStyle=0;resizable=1;" parent="xFFYZVTWZyNk6xg4L8Ox-34" vertex="1">
          <mxGeometry x="118" width="250" height="47" as="geometry">
            <mxRectangle width="250" height="47" as="alternateBounds" />
          </mxGeometry>
        </mxCell>
        <mxCell id="xFFYZVTWZyNk6xg4L8Ox-37" value="" style="shape=tableRow;horizontal=0;startSize=0;swimlaneHead=0;swimlaneBody=0;top=0;left=0;bottom=0;right=0;collapsible=0;dropTarget=0;fillColor=none;points=[[0,0.5],[1,0.5]];portConstraint=eastwest;strokeColor=inherit;fontSize=16;align=center;verticalAlign=middle;fontFamily=Helvetica;fontColor=default;fontStyle=0;resizable=1;" parent="xFFYZVTWZyNk6xg4L8Ox-33" vertex="1">
          <mxGeometry y="77" width="368.15" height="50" as="geometry" />
        </mxCell>
        <mxCell id="xFFYZVTWZyNk6xg4L8Ox-38" value="UserID" style="shape=partialRectangle;html=1;whiteSpace=wrap;connectable=0;fillColor=none;top=0;left=0;bottom=0;right=0;overflow=hidden;strokeColor=inherit;fontSize=16;align=center;verticalAlign=middle;fontFamily=Helvetica;fontColor=default;fontStyle=0;resizable=1;" parent="xFFYZVTWZyNk6xg4L8Ox-37" vertex="1">
          <mxGeometry width="118" height="50" as="geometry">
            <mxRectangle width="118" height="50" as="alternateBounds" />
          </mxGeometry>
        </mxCell>
        <mxCell id="xFFYZVTWZyNk6xg4L8Ox-39" value="INT" style="shape=partialRectangle;html=1;whiteSpace=wrap;connectable=0;fillColor=none;top=0;left=0;bottom=0;right=0;align=left;spacingLeft=6;overflow=hidden;strokeColor=inherit;fontSize=16;verticalAlign=middle;fontFamily=Helvetica;fontColor=default;fontStyle=0;resizable=1;" parent="xFFYZVTWZyNk6xg4L8Ox-37" vertex="1">
          <mxGeometry x="118" width="250" height="50" as="geometry">
            <mxRectangle width="250" height="50" as="alternateBounds" />
          </mxGeometry>
        </mxCell>
        <mxCell id="xFFYZVTWZyNk6xg4L8Ox-40" value="" style="shape=tableRow;horizontal=0;startSize=0;swimlaneHead=0;swimlaneBody=0;top=0;left=0;bottom=0;right=0;collapsible=0;dropTarget=0;fillColor=none;points=[[0,0.5],[1,0.5]];portConstraint=eastwest;strokeColor=inherit;fontSize=16;align=center;verticalAlign=middle;fontFamily=Helvetica;fontColor=default;fontStyle=0;resizable=1;" parent="xFFYZVTWZyNk6xg4L8Ox-33" vertex="1">
          <mxGeometry y="127" width="368.15" height="47" as="geometry" />
        </mxCell>
        <mxCell id="xFFYZVTWZyNk6xg4L8Ox-41" value="OrderDate" style="shape=partialRectangle;html=1;whiteSpace=wrap;connectable=0;fillColor=none;top=0;left=0;bottom=0;right=0;overflow=hidden;strokeColor=inherit;fontSize=16;align=center;verticalAlign=middle;fontFamily=Helvetica;fontColor=default;fontStyle=0;resizable=1;" parent="xFFYZVTWZyNk6xg4L8Ox-40" vertex="1">
          <mxGeometry width="118" height="47" as="geometry">
            <mxRectangle width="118" height="47" as="alternateBounds" />
          </mxGeometry>
        </mxCell>
        <mxCell id="xFFYZVTWZyNk6xg4L8Ox-42" value="TIMESTAMP DEFAULT CURRENT_TIMESTAMP" style="shape=partialRectangle;html=1;whiteSpace=wrap;connectable=0;fillColor=none;top=0;left=0;bottom=0;right=0;align=left;spacingLeft=6;overflow=hidden;strokeColor=inherit;fontSize=16;verticalAlign=middle;fontFamily=Helvetica;fontColor=default;fontStyle=0;resizable=1;" parent="xFFYZVTWZyNk6xg4L8Ox-40" vertex="1">
          <mxGeometry x="118" width="250" height="47" as="geometry">
            <mxRectangle width="250" height="47" as="alternateBounds" />
          </mxGeometry>
        </mxCell>
        <mxCell id="xFFYZVTWZyNk6xg4L8Ox-43" value="" style="shape=tableRow;horizontal=0;startSize=0;swimlaneHead=0;swimlaneBody=0;top=0;left=0;bottom=0;right=0;collapsible=0;dropTarget=0;fillColor=none;points=[[0,0.5],[1,0.5]];portConstraint=eastwest;strokeColor=inherit;fontSize=16;align=center;verticalAlign=middle;fontFamily=Helvetica;fontColor=default;fontStyle=0;resizable=1;" parent="xFFYZVTWZyNk6xg4L8Ox-33" vertex="1">
          <mxGeometry y="174" width="368.15" height="58" as="geometry" />
        </mxCell>
        <mxCell id="xFFYZVTWZyNk6xg4L8Ox-44" value="TotalAmount" style="shape=partialRectangle;html=1;whiteSpace=wrap;connectable=0;fillColor=none;top=0;left=0;bottom=0;right=0;overflow=hidden;strokeColor=inherit;fontSize=16;align=center;verticalAlign=middle;fontFamily=Helvetica;fontColor=default;fontStyle=0;resizable=1;" parent="xFFYZVTWZyNk6xg4L8Ox-43" vertex="1">
          <mxGeometry width="118" height="58" as="geometry">
            <mxRectangle width="118" height="58" as="alternateBounds" />
          </mxGeometry>
        </mxCell>
        <mxCell id="xFFYZVTWZyNk6xg4L8Ox-45" value="&lt;table&gt;&lt;tbody&gt;&lt;tr&gt;&lt;td&gt;&lt;/td&gt;&lt;/tr&gt;&lt;/tbody&gt;&lt;/table&gt;&lt;table&gt;&lt;tbody&gt;&lt;tr&gt;&lt;td&gt;DECIMAL(10, 2)&lt;/td&gt;&lt;/tr&gt;&lt;/tbody&gt;&lt;/table&gt;" style="shape=partialRectangle;html=1;whiteSpace=wrap;connectable=0;fillColor=none;top=0;left=0;bottom=0;right=0;align=left;spacingLeft=6;overflow=hidden;strokeColor=inherit;fontSize=16;verticalAlign=middle;fontFamily=Helvetica;fontColor=default;fontStyle=0;resizable=1;" parent="xFFYZVTWZyNk6xg4L8Ox-43" vertex="1">
          <mxGeometry x="118" width="250" height="58" as="geometry">
            <mxRectangle width="250" height="58" as="alternateBounds" />
          </mxGeometry>
        </mxCell>
        <mxCell id="xFFYZVTWZyNk6xg4L8Ox-46" value="" style="shape=tableRow;horizontal=0;startSize=0;swimlaneHead=0;swimlaneBody=0;top=0;left=0;bottom=0;right=0;collapsible=0;dropTarget=0;fillColor=none;points=[[0,0.5],[1,0.5]];portConstraint=eastwest;strokeColor=inherit;fontSize=16;align=center;verticalAlign=middle;fontFamily=Helvetica;fontColor=default;fontStyle=0;resizable=1;" parent="xFFYZVTWZyNk6xg4L8Ox-33" vertex="1">
          <mxGeometry y="232" width="368.15" height="58" as="geometry" />
        </mxCell>
        <mxCell id="xFFYZVTWZyNk6xg4L8Ox-47" value="Status" style="shape=partialRectangle;html=1;whiteSpace=wrap;connectable=0;fillColor=none;top=0;left=0;bottom=0;right=0;overflow=hidden;strokeColor=inherit;fontSize=16;align=center;verticalAlign=middle;fontFamily=Helvetica;fontColor=default;fontStyle=0;resizable=1;" parent="xFFYZVTWZyNk6xg4L8Ox-46" vertex="1">
          <mxGeometry width="118" height="58" as="geometry">
            <mxRectangle width="118" height="58" as="alternateBounds" />
          </mxGeometry>
        </mxCell>
        <mxCell id="xFFYZVTWZyNk6xg4L8Ox-48" value="VARCHAR(50)" style="shape=partialRectangle;html=1;whiteSpace=wrap;connectable=0;fillColor=none;top=0;left=0;bottom=0;right=0;align=left;spacingLeft=6;overflow=hidden;strokeColor=inherit;fontSize=16;verticalAlign=middle;fontFamily=Helvetica;fontColor=default;fontStyle=0;resizable=1;" parent="xFFYZVTWZyNk6xg4L8Ox-46" vertex="1">
          <mxGeometry x="118" width="250" height="58" as="geometry">
            <mxRectangle width="250" height="58" as="alternateBounds" />
          </mxGeometry>
        </mxCell>
        <mxCell id="xFFYZVTWZyNk6xg4L8Ox-49" value="OrderDetails" style="shape=table;startSize=30;container=1;collapsible=0;childLayout=tableLayout;fixedRows=1;rowLines=0;fontStyle=0;strokeColor=default;fontSize=16;align=center;verticalAlign=middle;fontFamily=Helvetica;fontColor=default;resizable=1;fillColor=default;" parent="WIyWlLk6GJQsqaUBKTNV-1" vertex="1">
          <mxGeometry x="-312" y="1135" width="368.15" height="291" as="geometry" />
        </mxCell>
        <mxCell id="xFFYZVTWZyNk6xg4L8Ox-50" value="" style="shape=tableRow;horizontal=0;startSize=0;swimlaneHead=0;swimlaneBody=0;top=0;left=0;bottom=0;right=0;collapsible=0;dropTarget=0;fillColor=none;points=[[0,0.5],[1,0.5]];portConstraint=eastwest;strokeColor=inherit;fontSize=16;align=center;verticalAlign=middle;fontFamily=Helvetica;fontColor=default;fontStyle=0;resizable=1;" parent="xFFYZVTWZyNk6xg4L8Ox-49" vertex="1">
          <mxGeometry y="30" width="368.15" height="47" as="geometry" />
        </mxCell>
        <mxCell id="xFFYZVTWZyNk6xg4L8Ox-51" value="OrderDetailID" style="shape=partialRectangle;html=1;whiteSpace=wrap;connectable=0;fillColor=none;top=0;left=0;bottom=0;right=0;overflow=hidden;pointerEvents=1;strokeColor=inherit;fontSize=16;align=center;verticalAlign=middle;fontFamily=Helvetica;fontColor=default;fontStyle=0;resizable=1;" parent="xFFYZVTWZyNk6xg4L8Ox-50" vertex="1">
          <mxGeometry width="118" height="47" as="geometry">
            <mxRectangle width="118" height="47" as="alternateBounds" />
          </mxGeometry>
        </mxCell>
        <mxCell id="xFFYZVTWZyNk6xg4L8Ox-52" value="INT, PRIMARY KEY, AUTO_INCREMENT" style="shape=partialRectangle;html=1;whiteSpace=wrap;connectable=0;fillColor=none;top=0;left=0;bottom=0;right=0;align=left;spacingLeft=6;overflow=hidden;strokeColor=inherit;fontSize=16;verticalAlign=middle;fontFamily=Helvetica;fontColor=default;fontStyle=0;resizable=1;" parent="xFFYZVTWZyNk6xg4L8Ox-50" vertex="1">
          <mxGeometry x="118" width="250" height="47" as="geometry">
            <mxRectangle width="250" height="47" as="alternateBounds" />
          </mxGeometry>
        </mxCell>
        <mxCell id="xFFYZVTWZyNk6xg4L8Ox-53" value="" style="shape=tableRow;horizontal=0;startSize=0;swimlaneHead=0;swimlaneBody=0;top=0;left=0;bottom=0;right=0;collapsible=0;dropTarget=0;fillColor=none;points=[[0,0.5],[1,0.5]];portConstraint=eastwest;strokeColor=inherit;fontSize=16;align=center;verticalAlign=middle;fontFamily=Helvetica;fontColor=default;fontStyle=0;resizable=1;" parent="xFFYZVTWZyNk6xg4L8Ox-49" vertex="1">
          <mxGeometry y="77" width="368.15" height="50" as="geometry" />
        </mxCell>
        <mxCell id="xFFYZVTWZyNk6xg4L8Ox-54" value="OrderID" style="shape=partialRectangle;html=1;whiteSpace=wrap;connectable=0;fillColor=none;top=0;left=0;bottom=0;right=0;overflow=hidden;strokeColor=inherit;fontSize=16;align=center;verticalAlign=middle;fontFamily=Helvetica;fontColor=default;fontStyle=0;resizable=1;" parent="xFFYZVTWZyNk6xg4L8Ox-53" vertex="1">
          <mxGeometry width="118" height="50" as="geometry">
            <mxRectangle width="118" height="50" as="alternateBounds" />
          </mxGeometry>
        </mxCell>
        <mxCell id="xFFYZVTWZyNk6xg4L8Ox-55" value="INT" style="shape=partialRectangle;html=1;whiteSpace=wrap;connectable=0;fillColor=none;top=0;left=0;bottom=0;right=0;align=left;spacingLeft=6;overflow=hidden;strokeColor=inherit;fontSize=16;verticalAlign=middle;fontFamily=Helvetica;fontColor=default;fontStyle=0;resizable=1;" parent="xFFYZVTWZyNk6xg4L8Ox-53" vertex="1">
          <mxGeometry x="118" width="250" height="50" as="geometry">
            <mxRectangle width="250" height="50" as="alternateBounds" />
          </mxGeometry>
        </mxCell>
        <mxCell id="xFFYZVTWZyNk6xg4L8Ox-56" value="" style="shape=tableRow;horizontal=0;startSize=0;swimlaneHead=0;swimlaneBody=0;top=0;left=0;bottom=0;right=0;collapsible=0;dropTarget=0;fillColor=none;points=[[0,0.5],[1,0.5]];portConstraint=eastwest;strokeColor=inherit;fontSize=16;align=center;verticalAlign=middle;fontFamily=Helvetica;fontColor=default;fontStyle=0;resizable=1;" parent="xFFYZVTWZyNk6xg4L8Ox-49" vertex="1">
          <mxGeometry y="127" width="368.15" height="47" as="geometry" />
        </mxCell>
        <mxCell id="xFFYZVTWZyNk6xg4L8Ox-57" value="ProductID" style="shape=partialRectangle;html=1;whiteSpace=wrap;connectable=0;fillColor=none;top=0;left=0;bottom=0;right=0;overflow=hidden;strokeColor=inherit;fontSize=16;align=center;verticalAlign=middle;fontFamily=Helvetica;fontColor=default;fontStyle=0;resizable=1;" parent="xFFYZVTWZyNk6xg4L8Ox-56" vertex="1">
          <mxGeometry width="118" height="47" as="geometry">
            <mxRectangle width="118" height="47" as="alternateBounds" />
          </mxGeometry>
        </mxCell>
        <mxCell id="xFFYZVTWZyNk6xg4L8Ox-58" value="INT" style="shape=partialRectangle;html=1;whiteSpace=wrap;connectable=0;fillColor=none;top=0;left=0;bottom=0;right=0;align=left;spacingLeft=6;overflow=hidden;strokeColor=inherit;fontSize=16;verticalAlign=middle;fontFamily=Helvetica;fontColor=default;fontStyle=0;resizable=1;" parent="xFFYZVTWZyNk6xg4L8Ox-56" vertex="1">
          <mxGeometry x="118" width="250" height="47" as="geometry">
            <mxRectangle width="250" height="47" as="alternateBounds" />
          </mxGeometry>
        </mxCell>
        <mxCell id="xFFYZVTWZyNk6xg4L8Ox-59" value="" style="shape=tableRow;horizontal=0;startSize=0;swimlaneHead=0;swimlaneBody=0;top=0;left=0;bottom=0;right=0;collapsible=0;dropTarget=0;fillColor=none;points=[[0,0.5],[1,0.5]];portConstraint=eastwest;strokeColor=inherit;fontSize=16;align=center;verticalAlign=middle;fontFamily=Helvetica;fontColor=default;fontStyle=0;resizable=1;" parent="xFFYZVTWZyNk6xg4L8Ox-49" vertex="1">
          <mxGeometry y="174" width="368.15" height="58" as="geometry" />
        </mxCell>
        <mxCell id="xFFYZVTWZyNk6xg4L8Ox-60" value="Quantity" style="shape=partialRectangle;html=1;whiteSpace=wrap;connectable=0;fillColor=none;top=0;left=0;bottom=0;right=0;overflow=hidden;strokeColor=inherit;fontSize=16;align=center;verticalAlign=middle;fontFamily=Helvetica;fontColor=default;fontStyle=0;resizable=1;" parent="xFFYZVTWZyNk6xg4L8Ox-59" vertex="1">
          <mxGeometry width="118" height="58" as="geometry">
            <mxRectangle width="118" height="58" as="alternateBounds" />
          </mxGeometry>
        </mxCell>
        <mxCell id="xFFYZVTWZyNk6xg4L8Ox-61" value="INT" style="shape=partialRectangle;html=1;whiteSpace=wrap;connectable=0;fillColor=none;top=0;left=0;bottom=0;right=0;align=left;spacingLeft=6;overflow=hidden;strokeColor=inherit;fontSize=16;verticalAlign=middle;fontFamily=Helvetica;fontColor=default;fontStyle=0;resizable=1;" parent="xFFYZVTWZyNk6xg4L8Ox-59" vertex="1">
          <mxGeometry x="118" width="250" height="58" as="geometry">
            <mxRectangle width="250" height="58" as="alternateBounds" />
          </mxGeometry>
        </mxCell>
        <mxCell id="xFFYZVTWZyNk6xg4L8Ox-62" value="" style="shape=tableRow;horizontal=0;startSize=0;swimlaneHead=0;swimlaneBody=0;top=0;left=0;bottom=0;right=0;collapsible=0;dropTarget=0;fillColor=none;points=[[0,0.5],[1,0.5]];portConstraint=eastwest;strokeColor=inherit;fontSize=16;align=center;verticalAlign=middle;fontFamily=Helvetica;fontColor=default;fontStyle=0;resizable=1;" parent="xFFYZVTWZyNk6xg4L8Ox-49" vertex="1">
          <mxGeometry y="232" width="368.15" height="58" as="geometry" />
        </mxCell>
        <mxCell id="xFFYZVTWZyNk6xg4L8Ox-63" value="UnitPrice" style="shape=partialRectangle;html=1;whiteSpace=wrap;connectable=0;fillColor=none;top=0;left=0;bottom=0;right=0;overflow=hidden;strokeColor=inherit;fontSize=16;align=center;verticalAlign=middle;fontFamily=Helvetica;fontColor=default;fontStyle=0;resizable=1;" parent="xFFYZVTWZyNk6xg4L8Ox-62" vertex="1">
          <mxGeometry width="118" height="58" as="geometry">
            <mxRectangle width="118" height="58" as="alternateBounds" />
          </mxGeometry>
        </mxCell>
        <mxCell id="xFFYZVTWZyNk6xg4L8Ox-64" value="DECIMAL(10, 2)" style="shape=partialRectangle;html=1;whiteSpace=wrap;connectable=0;fillColor=none;top=0;left=0;bottom=0;right=0;align=left;spacingLeft=6;overflow=hidden;strokeColor=inherit;fontSize=16;verticalAlign=middle;fontFamily=Helvetica;fontColor=default;fontStyle=0;resizable=1;" parent="xFFYZVTWZyNk6xg4L8Ox-62" vertex="1">
          <mxGeometry x="118" width="250" height="58" as="geometry">
            <mxRectangle width="250" height="58" as="alternateBounds" />
          </mxGeometry>
        </mxCell>
        <mxCell id="xFFYZVTWZyNk6xg4L8Ox-65" value="" style="edgeStyle=entityRelationEdgeStyle;fontSize=12;html=1;endArrow=ERzeroToMany;endFill=1;rounded=0;entryX=1;entryY=0.5;entryDx=0;entryDy=0;exitX=0;exitY=0.5;exitDx=0;exitDy=0;" parent="WIyWlLk6GJQsqaUBKTNV-1" source="xFFYZVTWZyNk6xg4L8Ox-53" target="xFFYZVTWZyNk6xg4L8Ox-34" edge="1">
          <mxGeometry width="100" height="100" relative="1" as="geometry">
            <mxPoint x="-432" y="1093" as="sourcePoint" />
            <mxPoint x="-332" y="993" as="targetPoint" />
          </mxGeometry>
        </mxCell>
        <mxCell id="MPWzNyKB8D4xZb0Rmoj0-295" value="Product" style="shape=table;startSize=30;container=1;collapsible=1;childLayout=tableLayout;fixedRows=1;rowLines=0;fontStyle=1;align=center;resizeLast=1;html=1;" vertex="1" parent="WIyWlLk6GJQsqaUBKTNV-1">
          <mxGeometry x="-280" y="20" width="180" height="270" as="geometry" />
        </mxCell>
        <mxCell id="MPWzNyKB8D4xZb0Rmoj0-296" value="" style="shape=tableRow;horizontal=0;startSize=0;swimlaneHead=0;swimlaneBody=0;fillColor=none;collapsible=0;dropTarget=0;points=[[0,0.5],[1,0.5]];portConstraint=eastwest;top=0;left=0;right=0;bottom=1;" vertex="1" parent="MPWzNyKB8D4xZb0Rmoj0-295">
          <mxGeometry y="30" width="180" height="30" as="geometry" />
        </mxCell>
        <mxCell id="MPWzNyKB8D4xZb0Rmoj0-297" value="PK" style="shape=partialRectangle;connectable=0;fillColor=none;top=0;left=0;bottom=0;right=0;fontStyle=1;overflow=hidden;whiteSpace=wrap;html=1;" vertex="1" parent="MPWzNyKB8D4xZb0Rmoj0-296">
          <mxGeometry width="30" height="30" as="geometry">
            <mxRectangle width="30" height="30" as="alternateBounds" />
          </mxGeometry>
        </mxCell>
        <mxCell id="MPWzNyKB8D4xZb0Rmoj0-298" value="product_id" style="shape=partialRectangle;connectable=0;fillColor=none;top=0;left=0;bottom=0;right=0;align=left;spacingLeft=6;fontStyle=5;overflow=hidden;whiteSpace=wrap;html=1;" vertex="1" parent="MPWzNyKB8D4xZb0Rmoj0-296">
          <mxGeometry x="30" width="150" height="30" as="geometry">
            <mxRectangle width="150" height="30" as="alternateBounds" />
          </mxGeometry>
        </mxCell>
        <mxCell id="MPWzNyKB8D4xZb0Rmoj0-299" value="" style="shape=tableRow;horizontal=0;startSize=0;swimlaneHead=0;swimlaneBody=0;fillColor=none;collapsible=0;dropTarget=0;points=[[0,0.5],[1,0.5]];portConstraint=eastwest;top=0;left=0;right=0;bottom=0;" vertex="1" parent="MPWzNyKB8D4xZb0Rmoj0-295">
          <mxGeometry y="60" width="180" height="30" as="geometry" />
        </mxCell>
        <mxCell id="MPWzNyKB8D4xZb0Rmoj0-300" value="" style="shape=partialRectangle;connectable=0;fillColor=none;top=0;left=0;bottom=0;right=0;editable=1;overflow=hidden;whiteSpace=wrap;html=1;" vertex="1" parent="MPWzNyKB8D4xZb0Rmoj0-299">
          <mxGeometry width="30" height="30" as="geometry">
            <mxRectangle width="30" height="30" as="alternateBounds" />
          </mxGeometry>
        </mxCell>
        <mxCell id="MPWzNyKB8D4xZb0Rmoj0-301" value="name" style="shape=partialRectangle;connectable=0;fillColor=none;top=0;left=0;bottom=0;right=0;align=left;spacingLeft=6;overflow=hidden;whiteSpace=wrap;html=1;" vertex="1" parent="MPWzNyKB8D4xZb0Rmoj0-299">
          <mxGeometry x="30" width="150" height="30" as="geometry">
            <mxRectangle width="150" height="30" as="alternateBounds" />
          </mxGeometry>
        </mxCell>
        <mxCell id="MPWzNyKB8D4xZb0Rmoj0-302" value="" style="shape=tableRow;horizontal=0;startSize=0;swimlaneHead=0;swimlaneBody=0;fillColor=none;collapsible=0;dropTarget=0;points=[[0,0.5],[1,0.5]];portConstraint=eastwest;top=0;left=0;right=0;bottom=0;" vertex="1" parent="MPWzNyKB8D4xZb0Rmoj0-295">
          <mxGeometry y="90" width="180" height="30" as="geometry" />
        </mxCell>
        <mxCell id="MPWzNyKB8D4xZb0Rmoj0-303" value="" style="shape=partialRectangle;connectable=0;fillColor=none;top=0;left=0;bottom=0;right=0;editable=1;overflow=hidden;whiteSpace=wrap;html=1;" vertex="1" parent="MPWzNyKB8D4xZb0Rmoj0-302">
          <mxGeometry width="30" height="30" as="geometry">
            <mxRectangle width="30" height="30" as="alternateBounds" />
          </mxGeometry>
        </mxCell>
        <mxCell id="MPWzNyKB8D4xZb0Rmoj0-304" value="price" style="shape=partialRectangle;connectable=0;fillColor=none;top=0;left=0;bottom=0;right=0;align=left;spacingLeft=6;overflow=hidden;whiteSpace=wrap;html=1;" vertex="1" parent="MPWzNyKB8D4xZb0Rmoj0-302">
          <mxGeometry x="30" width="150" height="30" as="geometry">
            <mxRectangle width="150" height="30" as="alternateBounds" />
          </mxGeometry>
        </mxCell>
        <mxCell id="MPWzNyKB8D4xZb0Rmoj0-305" value="" style="shape=tableRow;horizontal=0;startSize=0;swimlaneHead=0;swimlaneBody=0;fillColor=none;collapsible=0;dropTarget=0;points=[[0,0.5],[1,0.5]];portConstraint=eastwest;top=0;left=0;right=0;bottom=0;" vertex="1" parent="MPWzNyKB8D4xZb0Rmoj0-295">
          <mxGeometry y="120" width="180" height="30" as="geometry" />
        </mxCell>
        <mxCell id="MPWzNyKB8D4xZb0Rmoj0-306" value="&lt;b&gt;FK&lt;/b&gt;" style="shape=partialRectangle;connectable=0;fillColor=none;top=0;left=0;bottom=0;right=0;editable=1;overflow=hidden;whiteSpace=wrap;html=1;" vertex="1" parent="MPWzNyKB8D4xZb0Rmoj0-305">
          <mxGeometry width="30" height="30" as="geometry">
            <mxRectangle width="30" height="30" as="alternateBounds" />
          </mxGeometry>
        </mxCell>
        <mxCell id="MPWzNyKB8D4xZb0Rmoj0-307" value="color(product_size_id)" style="shape=partialRectangle;connectable=0;fillColor=none;top=0;left=0;bottom=0;right=0;align=left;spacingLeft=6;overflow=hidden;whiteSpace=wrap;html=1;" vertex="1" parent="MPWzNyKB8D4xZb0Rmoj0-305">
          <mxGeometry x="30" width="150" height="30" as="geometry">
            <mxRectangle width="150" height="30" as="alternateBounds" />
          </mxGeometry>
        </mxCell>
        <mxCell id="MPWzNyKB8D4xZb0Rmoj0-308" value="" style="shape=tableRow;horizontal=0;startSize=0;swimlaneHead=0;swimlaneBody=0;fillColor=none;collapsible=0;dropTarget=0;points=[[0,0.5],[1,0.5]];portConstraint=eastwest;top=0;left=0;right=0;bottom=0;" vertex="1" parent="MPWzNyKB8D4xZb0Rmoj0-295">
          <mxGeometry y="150" width="180" height="30" as="geometry" />
        </mxCell>
        <mxCell id="MPWzNyKB8D4xZb0Rmoj0-309" value="&lt;b&gt;FK&lt;/b&gt;" style="shape=partialRectangle;connectable=0;fillColor=none;top=0;left=0;bottom=0;right=0;editable=1;overflow=hidden;whiteSpace=wrap;html=1;" vertex="1" parent="MPWzNyKB8D4xZb0Rmoj0-308">
          <mxGeometry width="30" height="30" as="geometry">
            <mxRectangle width="30" height="30" as="alternateBounds" />
          </mxGeometry>
        </mxCell>
        <mxCell id="MPWzNyKB8D4xZb0Rmoj0-310" value="size(product_color_id)" style="shape=partialRectangle;connectable=0;fillColor=none;top=0;left=0;bottom=0;right=0;align=left;spacingLeft=6;overflow=hidden;whiteSpace=wrap;html=1;" vertex="1" parent="MPWzNyKB8D4xZb0Rmoj0-308">
          <mxGeometry x="30" width="150" height="30" as="geometry">
            <mxRectangle width="150" height="30" as="alternateBounds" />
          </mxGeometry>
        </mxCell>
        <mxCell id="MPWzNyKB8D4xZb0Rmoj0-311" value="" style="shape=tableRow;horizontal=0;startSize=0;swimlaneHead=0;swimlaneBody=0;fillColor=none;collapsible=0;dropTarget=0;points=[[0,0.5],[1,0.5]];portConstraint=eastwest;top=0;left=0;right=0;bottom=0;" vertex="1" parent="MPWzNyKB8D4xZb0Rmoj0-295">
          <mxGeometry y="180" width="180" height="30" as="geometry" />
        </mxCell>
        <mxCell id="MPWzNyKB8D4xZb0Rmoj0-312" value="" style="shape=partialRectangle;connectable=0;fillColor=none;top=0;left=0;bottom=0;right=0;editable=1;overflow=hidden;whiteSpace=wrap;html=1;" vertex="1" parent="MPWzNyKB8D4xZb0Rmoj0-311">
          <mxGeometry width="30" height="30" as="geometry">
            <mxRectangle width="30" height="30" as="alternateBounds" />
          </mxGeometry>
        </mxCell>
        <mxCell id="MPWzNyKB8D4xZb0Rmoj0-313" value="description" style="shape=partialRectangle;connectable=0;fillColor=none;top=0;left=0;bottom=0;right=0;align=left;spacingLeft=6;overflow=hidden;whiteSpace=wrap;html=1;" vertex="1" parent="MPWzNyKB8D4xZb0Rmoj0-311">
          <mxGeometry x="30" width="150" height="30" as="geometry">
            <mxRectangle width="150" height="30" as="alternateBounds" />
          </mxGeometry>
        </mxCell>
        <mxCell id="MPWzNyKB8D4xZb0Rmoj0-314" value="" style="shape=tableRow;horizontal=0;startSize=0;swimlaneHead=0;swimlaneBody=0;fillColor=none;collapsible=0;dropTarget=0;points=[[0,0.5],[1,0.5]];portConstraint=eastwest;top=0;left=0;right=0;bottom=0;" vertex="1" parent="MPWzNyKB8D4xZb0Rmoj0-295">
          <mxGeometry y="210" width="180" height="30" as="geometry" />
        </mxCell>
        <mxCell id="MPWzNyKB8D4xZb0Rmoj0-315" value="" style="shape=partialRectangle;connectable=0;fillColor=none;top=0;left=0;bottom=0;right=0;editable=1;overflow=hidden;whiteSpace=wrap;html=1;" vertex="1" parent="MPWzNyKB8D4xZb0Rmoj0-314">
          <mxGeometry width="30" height="30" as="geometry">
            <mxRectangle width="30" height="30" as="alternateBounds" />
          </mxGeometry>
        </mxCell>
        <mxCell id="MPWzNyKB8D4xZb0Rmoj0-316" value="image" style="shape=partialRectangle;connectable=0;fillColor=none;top=0;left=0;bottom=0;right=0;align=left;spacingLeft=6;overflow=hidden;whiteSpace=wrap;html=1;" vertex="1" parent="MPWzNyKB8D4xZb0Rmoj0-314">
          <mxGeometry x="30" width="150" height="30" as="geometry">
            <mxRectangle width="150" height="30" as="alternateBounds" />
          </mxGeometry>
        </mxCell>
        <mxCell id="MPWzNyKB8D4xZb0Rmoj0-317" value="" style="shape=tableRow;horizontal=0;startSize=0;swimlaneHead=0;swimlaneBody=0;fillColor=none;collapsible=0;dropTarget=0;points=[[0,0.5],[1,0.5]];portConstraint=eastwest;top=0;left=0;right=0;bottom=0;" vertex="1" parent="MPWzNyKB8D4xZb0Rmoj0-295">
          <mxGeometry y="240" width="180" height="30" as="geometry" />
        </mxCell>
        <mxCell id="MPWzNyKB8D4xZb0Rmoj0-318" value="&lt;b&gt;FK&lt;/b&gt;" style="shape=partialRectangle;connectable=0;fillColor=none;top=0;left=0;bottom=0;right=0;editable=1;overflow=hidden;whiteSpace=wrap;html=1;" vertex="1" parent="MPWzNyKB8D4xZb0Rmoj0-317">
          <mxGeometry width="30" height="30" as="geometry">
            <mxRectangle width="30" height="30" as="alternateBounds" />
          </mxGeometry>
        </mxCell>
        <mxCell id="MPWzNyKB8D4xZb0Rmoj0-319" value="category_id" style="shape=partialRectangle;connectable=0;fillColor=none;top=0;left=0;bottom=0;right=0;align=left;spacingLeft=6;overflow=hidden;whiteSpace=wrap;html=1;" vertex="1" parent="MPWzNyKB8D4xZb0Rmoj0-317">
          <mxGeometry x="30" width="150" height="30" as="geometry">
            <mxRectangle width="150" height="30" as="alternateBounds" />
          </mxGeometry>
        </mxCell>
        <mxCell id="MPWzNyKB8D4xZb0Rmoj0-320" value="Product_Size" style="shape=table;startSize=30;container=1;collapsible=1;childLayout=tableLayout;fixedRows=1;rowLines=0;fontStyle=1;align=center;resizeLast=1;html=1;" vertex="1" parent="WIyWlLk6GJQsqaUBKTNV-1">
          <mxGeometry x="-660" y="25" width="180" height="150" as="geometry" />
        </mxCell>
        <mxCell id="MPWzNyKB8D4xZb0Rmoj0-321" value="" style="shape=tableRow;horizontal=0;startSize=0;swimlaneHead=0;swimlaneBody=0;fillColor=none;collapsible=0;dropTarget=0;points=[[0,0.5],[1,0.5]];portConstraint=eastwest;top=0;left=0;right=0;bottom=1;" vertex="1" parent="MPWzNyKB8D4xZb0Rmoj0-320">
          <mxGeometry y="30" width="180" height="30" as="geometry" />
        </mxCell>
        <mxCell id="MPWzNyKB8D4xZb0Rmoj0-322" value="PK" style="shape=partialRectangle;connectable=0;fillColor=none;top=0;left=0;bottom=0;right=0;fontStyle=1;overflow=hidden;whiteSpace=wrap;html=1;" vertex="1" parent="MPWzNyKB8D4xZb0Rmoj0-321">
          <mxGeometry width="30" height="30" as="geometry">
            <mxRectangle width="30" height="30" as="alternateBounds" />
          </mxGeometry>
        </mxCell>
        <mxCell id="MPWzNyKB8D4xZb0Rmoj0-323" value="product_size_id" style="shape=partialRectangle;connectable=0;fillColor=none;top=0;left=0;bottom=0;right=0;align=left;spacingLeft=6;fontStyle=5;overflow=hidden;whiteSpace=wrap;html=1;" vertex="1" parent="MPWzNyKB8D4xZb0Rmoj0-321">
          <mxGeometry x="30" width="150" height="30" as="geometry">
            <mxRectangle width="150" height="30" as="alternateBounds" />
          </mxGeometry>
        </mxCell>
        <mxCell id="MPWzNyKB8D4xZb0Rmoj0-324" value="" style="shape=tableRow;horizontal=0;startSize=0;swimlaneHead=0;swimlaneBody=0;fillColor=none;collapsible=0;dropTarget=0;points=[[0,0.5],[1,0.5]];portConstraint=eastwest;top=0;left=0;right=0;bottom=0;" vertex="1" parent="MPWzNyKB8D4xZb0Rmoj0-320">
          <mxGeometry y="60" width="180" height="30" as="geometry" />
        </mxCell>
        <mxCell id="MPWzNyKB8D4xZb0Rmoj0-325" value="" style="shape=partialRectangle;connectable=0;fillColor=none;top=0;left=0;bottom=0;right=0;editable=1;overflow=hidden;whiteSpace=wrap;html=1;" vertex="1" parent="MPWzNyKB8D4xZb0Rmoj0-324">
          <mxGeometry width="30" height="30" as="geometry">
            <mxRectangle width="30" height="30" as="alternateBounds" />
          </mxGeometry>
        </mxCell>
        <mxCell id="MPWzNyKB8D4xZb0Rmoj0-326" value="name" style="shape=partialRectangle;connectable=0;fillColor=none;top=0;left=0;bottom=0;right=0;align=left;spacingLeft=6;overflow=hidden;whiteSpace=wrap;html=1;" vertex="1" parent="MPWzNyKB8D4xZb0Rmoj0-324">
          <mxGeometry x="30" width="150" height="30" as="geometry">
            <mxRectangle width="150" height="30" as="alternateBounds" />
          </mxGeometry>
        </mxCell>
        <mxCell id="MPWzNyKB8D4xZb0Rmoj0-327" value="" style="shape=tableRow;horizontal=0;startSize=0;swimlaneHead=0;swimlaneBody=0;fillColor=none;collapsible=0;dropTarget=0;points=[[0,0.5],[1,0.5]];portConstraint=eastwest;top=0;left=0;right=0;bottom=0;" vertex="1" parent="MPWzNyKB8D4xZb0Rmoj0-320">
          <mxGeometry y="90" width="180" height="30" as="geometry" />
        </mxCell>
        <mxCell id="MPWzNyKB8D4xZb0Rmoj0-328" value="" style="shape=partialRectangle;connectable=0;fillColor=none;top=0;left=0;bottom=0;right=0;editable=1;overflow=hidden;whiteSpace=wrap;html=1;" vertex="1" parent="MPWzNyKB8D4xZb0Rmoj0-327">
          <mxGeometry width="30" height="30" as="geometry">
            <mxRectangle width="30" height="30" as="alternateBounds" />
          </mxGeometry>
        </mxCell>
        <mxCell id="MPWzNyKB8D4xZb0Rmoj0-329" value="" style="shape=partialRectangle;connectable=0;fillColor=none;top=0;left=0;bottom=0;right=0;align=left;spacingLeft=6;overflow=hidden;whiteSpace=wrap;html=1;" vertex="1" parent="MPWzNyKB8D4xZb0Rmoj0-327">
          <mxGeometry x="30" width="150" height="30" as="geometry">
            <mxRectangle width="150" height="30" as="alternateBounds" />
          </mxGeometry>
        </mxCell>
        <mxCell id="MPWzNyKB8D4xZb0Rmoj0-330" value="" style="shape=tableRow;horizontal=0;startSize=0;swimlaneHead=0;swimlaneBody=0;fillColor=none;collapsible=0;dropTarget=0;points=[[0,0.5],[1,0.5]];portConstraint=eastwest;top=0;left=0;right=0;bottom=0;" vertex="1" parent="MPWzNyKB8D4xZb0Rmoj0-320">
          <mxGeometry y="120" width="180" height="30" as="geometry" />
        </mxCell>
        <mxCell id="MPWzNyKB8D4xZb0Rmoj0-331" value="" style="shape=partialRectangle;connectable=0;fillColor=none;top=0;left=0;bottom=0;right=0;editable=1;overflow=hidden;whiteSpace=wrap;html=1;" vertex="1" parent="MPWzNyKB8D4xZb0Rmoj0-330">
          <mxGeometry width="30" height="30" as="geometry">
            <mxRectangle width="30" height="30" as="alternateBounds" />
          </mxGeometry>
        </mxCell>
        <mxCell id="MPWzNyKB8D4xZb0Rmoj0-332" value="" style="shape=partialRectangle;connectable=0;fillColor=none;top=0;left=0;bottom=0;right=0;align=left;spacingLeft=6;overflow=hidden;whiteSpace=wrap;html=1;" vertex="1" parent="MPWzNyKB8D4xZb0Rmoj0-330">
          <mxGeometry x="30" width="150" height="30" as="geometry">
            <mxRectangle width="150" height="30" as="alternateBounds" />
          </mxGeometry>
        </mxCell>
        <mxCell id="MPWzNyKB8D4xZb0Rmoj0-333" value="Cart" style="shape=table;startSize=30;container=1;collapsible=1;childLayout=tableLayout;fixedRows=1;rowLines=0;fontStyle=1;align=center;resizeLast=1;html=1;" vertex="1" parent="WIyWlLk6GJQsqaUBKTNV-1">
          <mxGeometry x="340" y="20" width="180" height="150" as="geometry" />
        </mxCell>
        <mxCell id="MPWzNyKB8D4xZb0Rmoj0-334" value="" style="shape=tableRow;horizontal=0;startSize=0;swimlaneHead=0;swimlaneBody=0;fillColor=none;collapsible=0;dropTarget=0;points=[[0,0.5],[1,0.5]];portConstraint=eastwest;top=0;left=0;right=0;bottom=1;" vertex="1" parent="MPWzNyKB8D4xZb0Rmoj0-333">
          <mxGeometry y="30" width="180" height="30" as="geometry" />
        </mxCell>
        <mxCell id="MPWzNyKB8D4xZb0Rmoj0-335" value="PK" style="shape=partialRectangle;connectable=0;fillColor=none;top=0;left=0;bottom=0;right=0;fontStyle=1;overflow=hidden;whiteSpace=wrap;html=1;" vertex="1" parent="MPWzNyKB8D4xZb0Rmoj0-334">
          <mxGeometry width="30" height="30" as="geometry">
            <mxRectangle width="30" height="30" as="alternateBounds" />
          </mxGeometry>
        </mxCell>
        <mxCell id="MPWzNyKB8D4xZb0Rmoj0-336" value="cart_id" style="shape=partialRectangle;connectable=0;fillColor=none;top=0;left=0;bottom=0;right=0;align=left;spacingLeft=6;fontStyle=5;overflow=hidden;whiteSpace=wrap;html=1;" vertex="1" parent="MPWzNyKB8D4xZb0Rmoj0-334">
          <mxGeometry x="30" width="150" height="30" as="geometry">
            <mxRectangle width="150" height="30" as="alternateBounds" />
          </mxGeometry>
        </mxCell>
        <mxCell id="MPWzNyKB8D4xZb0Rmoj0-337" value="" style="shape=tableRow;horizontal=0;startSize=0;swimlaneHead=0;swimlaneBody=0;fillColor=none;collapsible=0;dropTarget=0;points=[[0,0.5],[1,0.5]];portConstraint=eastwest;top=0;left=0;right=0;bottom=0;" vertex="1" parent="MPWzNyKB8D4xZb0Rmoj0-333">
          <mxGeometry y="60" width="180" height="30" as="geometry" />
        </mxCell>
        <mxCell id="MPWzNyKB8D4xZb0Rmoj0-338" value="&lt;b&gt;FK&lt;/b&gt;" style="shape=partialRectangle;connectable=0;fillColor=none;top=0;left=0;bottom=0;right=0;editable=1;overflow=hidden;whiteSpace=wrap;html=1;" vertex="1" parent="MPWzNyKB8D4xZb0Rmoj0-337">
          <mxGeometry width="30" height="30" as="geometry">
            <mxRectangle width="30" height="30" as="alternateBounds" />
          </mxGeometry>
        </mxCell>
        <mxCell id="MPWzNyKB8D4xZb0Rmoj0-339" value="user_id" style="shape=partialRectangle;connectable=0;fillColor=none;top=0;left=0;bottom=0;right=0;align=left;spacingLeft=6;overflow=hidden;whiteSpace=wrap;html=1;" vertex="1" parent="MPWzNyKB8D4xZb0Rmoj0-337">
          <mxGeometry x="30" width="150" height="30" as="geometry">
            <mxRectangle width="150" height="30" as="alternateBounds" />
          </mxGeometry>
        </mxCell>
        <mxCell id="MPWzNyKB8D4xZb0Rmoj0-340" value="" style="shape=tableRow;horizontal=0;startSize=0;swimlaneHead=0;swimlaneBody=0;fillColor=none;collapsible=0;dropTarget=0;points=[[0,0.5],[1,0.5]];portConstraint=eastwest;top=0;left=0;right=0;bottom=0;" vertex="1" parent="MPWzNyKB8D4xZb0Rmoj0-333">
          <mxGeometry y="90" width="180" height="30" as="geometry" />
        </mxCell>
        <mxCell id="MPWzNyKB8D4xZb0Rmoj0-341" value="" style="shape=partialRectangle;connectable=0;fillColor=none;top=0;left=0;bottom=0;right=0;editable=1;overflow=hidden;whiteSpace=wrap;html=1;" vertex="1" parent="MPWzNyKB8D4xZb0Rmoj0-340">
          <mxGeometry width="30" height="30" as="geometry">
            <mxRectangle width="30" height="30" as="alternateBounds" />
          </mxGeometry>
        </mxCell>
        <mxCell id="MPWzNyKB8D4xZb0Rmoj0-342" value="created_at" style="shape=partialRectangle;connectable=0;fillColor=none;top=0;left=0;bottom=0;right=0;align=left;spacingLeft=6;overflow=hidden;whiteSpace=wrap;html=1;" vertex="1" parent="MPWzNyKB8D4xZb0Rmoj0-340">
          <mxGeometry x="30" width="150" height="30" as="geometry">
            <mxRectangle width="150" height="30" as="alternateBounds" />
          </mxGeometry>
        </mxCell>
        <mxCell id="MPWzNyKB8D4xZb0Rmoj0-343" value="" style="shape=tableRow;horizontal=0;startSize=0;swimlaneHead=0;swimlaneBody=0;fillColor=none;collapsible=0;dropTarget=0;points=[[0,0.5],[1,0.5]];portConstraint=eastwest;top=0;left=0;right=0;bottom=0;" vertex="1" parent="MPWzNyKB8D4xZb0Rmoj0-333">
          <mxGeometry y="120" width="180" height="30" as="geometry" />
        </mxCell>
        <mxCell id="MPWzNyKB8D4xZb0Rmoj0-344" value="" style="shape=partialRectangle;connectable=0;fillColor=none;top=0;left=0;bottom=0;right=0;editable=1;overflow=hidden;whiteSpace=wrap;html=1;" vertex="1" parent="MPWzNyKB8D4xZb0Rmoj0-343">
          <mxGeometry width="30" height="30" as="geometry">
            <mxRectangle width="30" height="30" as="alternateBounds" />
          </mxGeometry>
        </mxCell>
        <mxCell id="MPWzNyKB8D4xZb0Rmoj0-345" value="" style="shape=partialRectangle;connectable=0;fillColor=none;top=0;left=0;bottom=0;right=0;align=left;spacingLeft=6;overflow=hidden;whiteSpace=wrap;html=1;" vertex="1" parent="MPWzNyKB8D4xZb0Rmoj0-343">
          <mxGeometry x="30" width="150" height="30" as="geometry">
            <mxRectangle width="150" height="30" as="alternateBounds" />
          </mxGeometry>
        </mxCell>
        <mxCell id="MPWzNyKB8D4xZb0Rmoj0-346" value="Product_Color" style="shape=table;startSize=30;container=1;collapsible=1;childLayout=tableLayout;fixedRows=1;rowLines=0;fontStyle=1;align=center;resizeLast=1;html=1;" vertex="1" parent="WIyWlLk6GJQsqaUBKTNV-1">
          <mxGeometry x="-660" y="230" width="180" height="150" as="geometry" />
        </mxCell>
        <mxCell id="MPWzNyKB8D4xZb0Rmoj0-347" value="" style="shape=tableRow;horizontal=0;startSize=0;swimlaneHead=0;swimlaneBody=0;fillColor=none;collapsible=0;dropTarget=0;points=[[0,0.5],[1,0.5]];portConstraint=eastwest;top=0;left=0;right=0;bottom=1;" vertex="1" parent="MPWzNyKB8D4xZb0Rmoj0-346">
          <mxGeometry y="30" width="180" height="30" as="geometry" />
        </mxCell>
        <mxCell id="MPWzNyKB8D4xZb0Rmoj0-348" value="PK" style="shape=partialRectangle;connectable=0;fillColor=none;top=0;left=0;bottom=0;right=0;fontStyle=1;overflow=hidden;whiteSpace=wrap;html=1;" vertex="1" parent="MPWzNyKB8D4xZb0Rmoj0-347">
          <mxGeometry width="30" height="30" as="geometry">
            <mxRectangle width="30" height="30" as="alternateBounds" />
          </mxGeometry>
        </mxCell>
        <mxCell id="MPWzNyKB8D4xZb0Rmoj0-349" value="product_color_id" style="shape=partialRectangle;connectable=0;fillColor=none;top=0;left=0;bottom=0;right=0;align=left;spacingLeft=6;fontStyle=5;overflow=hidden;whiteSpace=wrap;html=1;" vertex="1" parent="MPWzNyKB8D4xZb0Rmoj0-347">
          <mxGeometry x="30" width="150" height="30" as="geometry">
            <mxRectangle width="150" height="30" as="alternateBounds" />
          </mxGeometry>
        </mxCell>
        <mxCell id="MPWzNyKB8D4xZb0Rmoj0-350" value="" style="shape=tableRow;horizontal=0;startSize=0;swimlaneHead=0;swimlaneBody=0;fillColor=none;collapsible=0;dropTarget=0;points=[[0,0.5],[1,0.5]];portConstraint=eastwest;top=0;left=0;right=0;bottom=0;" vertex="1" parent="MPWzNyKB8D4xZb0Rmoj0-346">
          <mxGeometry y="60" width="180" height="30" as="geometry" />
        </mxCell>
        <mxCell id="MPWzNyKB8D4xZb0Rmoj0-351" value="" style="shape=partialRectangle;connectable=0;fillColor=none;top=0;left=0;bottom=0;right=0;editable=1;overflow=hidden;whiteSpace=wrap;html=1;" vertex="1" parent="MPWzNyKB8D4xZb0Rmoj0-350">
          <mxGeometry width="30" height="30" as="geometry">
            <mxRectangle width="30" height="30" as="alternateBounds" />
          </mxGeometry>
        </mxCell>
        <mxCell id="MPWzNyKB8D4xZb0Rmoj0-352" value="name" style="shape=partialRectangle;connectable=0;fillColor=none;top=0;left=0;bottom=0;right=0;align=left;spacingLeft=6;overflow=hidden;whiteSpace=wrap;html=1;" vertex="1" parent="MPWzNyKB8D4xZb0Rmoj0-350">
          <mxGeometry x="30" width="150" height="30" as="geometry">
            <mxRectangle width="150" height="30" as="alternateBounds" />
          </mxGeometry>
        </mxCell>
        <mxCell id="MPWzNyKB8D4xZb0Rmoj0-353" value="" style="shape=tableRow;horizontal=0;startSize=0;swimlaneHead=0;swimlaneBody=0;fillColor=none;collapsible=0;dropTarget=0;points=[[0,0.5],[1,0.5]];portConstraint=eastwest;top=0;left=0;right=0;bottom=0;" vertex="1" parent="MPWzNyKB8D4xZb0Rmoj0-346">
          <mxGeometry y="90" width="180" height="30" as="geometry" />
        </mxCell>
        <mxCell id="MPWzNyKB8D4xZb0Rmoj0-354" value="" style="shape=partialRectangle;connectable=0;fillColor=none;top=0;left=0;bottom=0;right=0;editable=1;overflow=hidden;whiteSpace=wrap;html=1;" vertex="1" parent="MPWzNyKB8D4xZb0Rmoj0-353">
          <mxGeometry width="30" height="30" as="geometry">
            <mxRectangle width="30" height="30" as="alternateBounds" />
          </mxGeometry>
        </mxCell>
        <mxCell id="MPWzNyKB8D4xZb0Rmoj0-355" value="" style="shape=partialRectangle;connectable=0;fillColor=none;top=0;left=0;bottom=0;right=0;align=left;spacingLeft=6;overflow=hidden;whiteSpace=wrap;html=1;" vertex="1" parent="MPWzNyKB8D4xZb0Rmoj0-353">
          <mxGeometry x="30" width="150" height="30" as="geometry">
            <mxRectangle width="150" height="30" as="alternateBounds" />
          </mxGeometry>
        </mxCell>
        <mxCell id="MPWzNyKB8D4xZb0Rmoj0-356" value="" style="shape=tableRow;horizontal=0;startSize=0;swimlaneHead=0;swimlaneBody=0;fillColor=none;collapsible=0;dropTarget=0;points=[[0,0.5],[1,0.5]];portConstraint=eastwest;top=0;left=0;right=0;bottom=0;" vertex="1" parent="MPWzNyKB8D4xZb0Rmoj0-346">
          <mxGeometry y="120" width="180" height="30" as="geometry" />
        </mxCell>
        <mxCell id="MPWzNyKB8D4xZb0Rmoj0-357" value="" style="shape=partialRectangle;connectable=0;fillColor=none;top=0;left=0;bottom=0;right=0;editable=1;overflow=hidden;whiteSpace=wrap;html=1;" vertex="1" parent="MPWzNyKB8D4xZb0Rmoj0-356">
          <mxGeometry width="30" height="30" as="geometry">
            <mxRectangle width="30" height="30" as="alternateBounds" />
          </mxGeometry>
        </mxCell>
        <mxCell id="MPWzNyKB8D4xZb0Rmoj0-358" value="" style="shape=partialRectangle;connectable=0;fillColor=none;top=0;left=0;bottom=0;right=0;align=left;spacingLeft=6;overflow=hidden;whiteSpace=wrap;html=1;" vertex="1" parent="MPWzNyKB8D4xZb0Rmoj0-356">
          <mxGeometry x="30" width="150" height="30" as="geometry">
            <mxRectangle width="150" height="30" as="alternateBounds" />
          </mxGeometry>
        </mxCell>
        <mxCell id="MPWzNyKB8D4xZb0Rmoj0-359" value="" style="edgeStyle=entityRelationEdgeStyle;fontSize=12;html=1;endArrow=ERzeroToMany;startArrow=ERmandOne;rounded=0;" edge="1" parent="WIyWlLk6GJQsqaUBKTNV-1" source="MPWzNyKB8D4xZb0Rmoj0-305" target="MPWzNyKB8D4xZb0Rmoj0-321">
          <mxGeometry width="100" height="100" relative="1" as="geometry">
            <mxPoint x="-160" y="140" as="sourcePoint" />
            <mxPoint x="-60" y="40" as="targetPoint" />
          </mxGeometry>
        </mxCell>
        <mxCell id="MPWzNyKB8D4xZb0Rmoj0-360" value="" style="edgeStyle=entityRelationEdgeStyle;fontSize=12;html=1;endArrow=ERzeroToMany;startArrow=ERmandOne;rounded=0;" edge="1" parent="WIyWlLk6GJQsqaUBKTNV-1" source="MPWzNyKB8D4xZb0Rmoj0-308" target="MPWzNyKB8D4xZb0Rmoj0-347">
          <mxGeometry width="100" height="100" relative="1" as="geometry">
            <mxPoint x="-170" y="250" as="sourcePoint" />
            <mxPoint x="-70" y="150" as="targetPoint" />
          </mxGeometry>
        </mxCell>
        <mxCell id="MPWzNyKB8D4xZb0Rmoj0-375" value="Cart_Item" style="shape=table;startSize=30;container=1;collapsible=1;childLayout=tableLayout;fixedRows=1;rowLines=0;fontStyle=1;align=center;resizeLast=1;html=1;" vertex="1" parent="WIyWlLk6GJQsqaUBKTNV-1">
          <mxGeometry x="30" y="25" width="180" height="180" as="geometry" />
        </mxCell>
        <mxCell id="MPWzNyKB8D4xZb0Rmoj0-376" value="" style="shape=tableRow;horizontal=0;startSize=0;swimlaneHead=0;swimlaneBody=0;fillColor=none;collapsible=0;dropTarget=0;points=[[0,0.5],[1,0.5]];portConstraint=eastwest;top=0;left=0;right=0;bottom=1;" vertex="1" parent="MPWzNyKB8D4xZb0Rmoj0-375">
          <mxGeometry y="30" width="180" height="30" as="geometry" />
        </mxCell>
        <mxCell id="MPWzNyKB8D4xZb0Rmoj0-377" value="PK" style="shape=partialRectangle;connectable=0;fillColor=none;top=0;left=0;bottom=0;right=0;fontStyle=1;overflow=hidden;whiteSpace=wrap;html=1;" vertex="1" parent="MPWzNyKB8D4xZb0Rmoj0-376">
          <mxGeometry width="30" height="30" as="geometry">
            <mxRectangle width="30" height="30" as="alternateBounds" />
          </mxGeometry>
        </mxCell>
        <mxCell id="MPWzNyKB8D4xZb0Rmoj0-378" value="cart_item_id" style="shape=partialRectangle;connectable=0;fillColor=none;top=0;left=0;bottom=0;right=0;align=left;spacingLeft=6;fontStyle=5;overflow=hidden;whiteSpace=wrap;html=1;" vertex="1" parent="MPWzNyKB8D4xZb0Rmoj0-376">
          <mxGeometry x="30" width="150" height="30" as="geometry">
            <mxRectangle width="150" height="30" as="alternateBounds" />
          </mxGeometry>
        </mxCell>
        <mxCell id="MPWzNyKB8D4xZb0Rmoj0-379" value="" style="shape=tableRow;horizontal=0;startSize=0;swimlaneHead=0;swimlaneBody=0;fillColor=none;collapsible=0;dropTarget=0;points=[[0,0.5],[1,0.5]];portConstraint=eastwest;top=0;left=0;right=0;bottom=0;" vertex="1" parent="MPWzNyKB8D4xZb0Rmoj0-375">
          <mxGeometry y="60" width="180" height="30" as="geometry" />
        </mxCell>
        <mxCell id="MPWzNyKB8D4xZb0Rmoj0-380" value="&lt;b&gt;FK&lt;/b&gt;" style="shape=partialRectangle;connectable=0;fillColor=none;top=0;left=0;bottom=0;right=0;editable=1;overflow=hidden;whiteSpace=wrap;html=1;" vertex="1" parent="MPWzNyKB8D4xZb0Rmoj0-379">
          <mxGeometry width="30" height="30" as="geometry">
            <mxRectangle width="30" height="30" as="alternateBounds" />
          </mxGeometry>
        </mxCell>
        <mxCell id="MPWzNyKB8D4xZb0Rmoj0-381" value="cart_id" style="shape=partialRectangle;connectable=0;fillColor=none;top=0;left=0;bottom=0;right=0;align=left;spacingLeft=6;overflow=hidden;whiteSpace=wrap;html=1;" vertex="1" parent="MPWzNyKB8D4xZb0Rmoj0-379">
          <mxGeometry x="30" width="150" height="30" as="geometry">
            <mxRectangle width="150" height="30" as="alternateBounds" />
          </mxGeometry>
        </mxCell>
        <mxCell id="MPWzNyKB8D4xZb0Rmoj0-382" value="" style="shape=tableRow;horizontal=0;startSize=0;swimlaneHead=0;swimlaneBody=0;fillColor=none;collapsible=0;dropTarget=0;points=[[0,0.5],[1,0.5]];portConstraint=eastwest;top=0;left=0;right=0;bottom=0;" vertex="1" parent="MPWzNyKB8D4xZb0Rmoj0-375">
          <mxGeometry y="90" width="180" height="30" as="geometry" />
        </mxCell>
        <mxCell id="MPWzNyKB8D4xZb0Rmoj0-383" value="&lt;b&gt;FK&lt;/b&gt;" style="shape=partialRectangle;connectable=0;fillColor=none;top=0;left=0;bottom=0;right=0;editable=1;overflow=hidden;whiteSpace=wrap;html=1;" vertex="1" parent="MPWzNyKB8D4xZb0Rmoj0-382">
          <mxGeometry width="30" height="30" as="geometry">
            <mxRectangle width="30" height="30" as="alternateBounds" />
          </mxGeometry>
        </mxCell>
        <mxCell id="MPWzNyKB8D4xZb0Rmoj0-384" value="product_id" style="shape=partialRectangle;connectable=0;fillColor=none;top=0;left=0;bottom=0;right=0;align=left;spacingLeft=6;overflow=hidden;whiteSpace=wrap;html=1;" vertex="1" parent="MPWzNyKB8D4xZb0Rmoj0-382">
          <mxGeometry x="30" width="150" height="30" as="geometry">
            <mxRectangle width="150" height="30" as="alternateBounds" />
          </mxGeometry>
        </mxCell>
        <mxCell id="MPWzNyKB8D4xZb0Rmoj0-385" value="" style="shape=tableRow;horizontal=0;startSize=0;swimlaneHead=0;swimlaneBody=0;fillColor=none;collapsible=0;dropTarget=0;points=[[0,0.5],[1,0.5]];portConstraint=eastwest;top=0;left=0;right=0;bottom=0;" vertex="1" parent="MPWzNyKB8D4xZb0Rmoj0-375">
          <mxGeometry y="120" width="180" height="30" as="geometry" />
        </mxCell>
        <mxCell id="MPWzNyKB8D4xZb0Rmoj0-386" value="" style="shape=partialRectangle;connectable=0;fillColor=none;top=0;left=0;bottom=0;right=0;editable=1;overflow=hidden;whiteSpace=wrap;html=1;" vertex="1" parent="MPWzNyKB8D4xZb0Rmoj0-385">
          <mxGeometry width="30" height="30" as="geometry">
            <mxRectangle width="30" height="30" as="alternateBounds" />
          </mxGeometry>
        </mxCell>
        <mxCell id="MPWzNyKB8D4xZb0Rmoj0-387" value="quantity" style="shape=partialRectangle;connectable=0;fillColor=none;top=0;left=0;bottom=0;right=0;align=left;spacingLeft=6;overflow=hidden;whiteSpace=wrap;html=1;" vertex="1" parent="MPWzNyKB8D4xZb0Rmoj0-385">
          <mxGeometry x="30" width="150" height="30" as="geometry">
            <mxRectangle width="150" height="30" as="alternateBounds" />
          </mxGeometry>
        </mxCell>
        <mxCell id="MPWzNyKB8D4xZb0Rmoj0-388" value="" style="shape=tableRow;horizontal=0;startSize=0;swimlaneHead=0;swimlaneBody=0;fillColor=none;collapsible=0;dropTarget=0;points=[[0,0.5],[1,0.5]];portConstraint=eastwest;top=0;left=0;right=0;bottom=0;" vertex="1" parent="MPWzNyKB8D4xZb0Rmoj0-375">
          <mxGeometry y="150" width="180" height="30" as="geometry" />
        </mxCell>
        <mxCell id="MPWzNyKB8D4xZb0Rmoj0-389" value="" style="shape=partialRectangle;connectable=0;fillColor=none;top=0;left=0;bottom=0;right=0;editable=1;overflow=hidden;whiteSpace=wrap;html=1;" vertex="1" parent="MPWzNyKB8D4xZb0Rmoj0-388">
          <mxGeometry width="30" height="30" as="geometry">
            <mxRectangle width="30" height="30" as="alternateBounds" />
          </mxGeometry>
        </mxCell>
        <mxCell id="MPWzNyKB8D4xZb0Rmoj0-390" value="price" style="shape=partialRectangle;connectable=0;fillColor=none;top=0;left=0;bottom=0;right=0;align=left;spacingLeft=6;overflow=hidden;whiteSpace=wrap;html=1;" vertex="1" parent="MPWzNyKB8D4xZb0Rmoj0-388">
          <mxGeometry x="30" width="150" height="30" as="geometry">
            <mxRectangle width="150" height="30" as="alternateBounds" />
          </mxGeometry>
        </mxCell>
        <mxCell id="MPWzNyKB8D4xZb0Rmoj0-391" value="" style="edgeStyle=entityRelationEdgeStyle;fontSize=12;html=1;endArrow=ERzeroToMany;startArrow=ERmandOne;rounded=0;" edge="1" parent="WIyWlLk6GJQsqaUBKTNV-1" source="MPWzNyKB8D4xZb0Rmoj0-334" target="MPWzNyKB8D4xZb0Rmoj0-379">
          <mxGeometry width="100" height="100" relative="1" as="geometry">
            <mxPoint x="325" y="300" as="sourcePoint" />
            <mxPoint x="210" y="90" as="targetPoint" />
          </mxGeometry>
        </mxCell>
        <mxCell id="MPWzNyKB8D4xZb0Rmoj0-392" value="" style="edgeStyle=entityRelationEdgeStyle;fontSize=12;html=1;endArrow=ERzeroToMany;startArrow=ERmandOne;rounded=0;" edge="1" parent="WIyWlLk6GJQsqaUBKTNV-1" source="MPWzNyKB8D4xZb0Rmoj0-296" target="MPWzNyKB8D4xZb0Rmoj0-382">
          <mxGeometry width="100" height="100" relative="1" as="geometry">
            <mxPoint x="130" y="200" as="sourcePoint" />
            <mxPoint x="230" y="100" as="targetPoint" />
          </mxGeometry>
        </mxCell>
      </root>
    </mxGraphModel>
  </diagram>
</mxfile>
